<?xml version="1.0" encoding="UTF-8" standalone="no"?>
<!DOCTYPE svg PUBLIC "-//W3C//DTD SVG 1.1//EN"
 "http://www.w3.org/Graphics/SVG/1.1/DTD/svg11.dtd">
<!-- Generated by graphviz version 2.38.0 (20140413.2041)
 -->
<!-- Title: G Pages: 1 -->
<svg width="167pt" height="327pt"
 viewBox="0.00 0.00 167.21 327.00" xmlns="http://www.w3.org/2000/svg" xmlns:xlink="http://www.w3.org/1999/xlink">
<g id="graph0" class="graph" transform="scale(1 1) rotate(0) translate(4 323)">
<title>G</title>
<polygon fill="white" stroke="none" points="-4,4 -4,-323 163.213,-323 163.213,4 -4,4"/>
<g id="clust1" class="cluster"><title>cluster_Global</title>
<path fill="none" stroke="gray" d="M20,-8C20,-8 139.213,-8 139.213,-8 145.213,-8 151.213,-14 151.213,-20 151.213,-20 151.213,-299 151.213,-299 151.213,-305 145.213,-311 139.213,-311 139.213,-311 20,-311 20,-311 14,-311 8,-305 8,-299 8,-299 8,-20 8,-20 8,-14 14,-8 20,-8"/>
<text text-anchor="middle" x="79.6064" y="-298.2" font-family="Times,serif" font-size="11.00" fill="gray">Global</text>
</g>
<g id="clust2" class="cluster"><title>cluster_\Vicimus</title>
<path fill="none" stroke="gray" d="M28,-16C28,-16 131.213,-16 131.213,-16 137.213,-16 143.213,-22 143.213,-28 143.213,-28 143.213,-272 143.213,-272 143.213,-278 137.213,-284 131.213,-284 131.213,-284 28,-284 28,-284 22,-284 16,-278 16,-272 16,-272 16,-28 16,-28 16,-22 22,-16 28,-16"/>
<text text-anchor="middle" x="79.6064" y="-271.2" font-family="Times,serif" font-size="11.00" fill="gray">Vicimus</text>
</g>
<g id="clust3" class="cluster"><title>cluster_\Vicimus\Gicimus</title>
<path fill="none" stroke="gray" d="M36,-24C36,-24 123.213,-24 123.213,-24 129.213,-24 135.213,-30 135.213,-36 135.213,-36 135.213,-245 135.213,-245 135.213,-251 129.213,-257 123.213,-257 123.213,-257 36,-257 36,-257 30,-257 24,-251 24,-245 24,-245 24,-36 24,-36 24,-30 30,-24 36,-24"/>
<text text-anchor="middle" x="79.6064" y="-244.2" font-family="Times,serif" font-size="11.00" fill="gray">Gicimus</text>
</g>
<!-- \\Vicimus\\Gicimus\\Review -->
<g id="node1" class="node"><title>\\Vicimus\\Gicimus\\Review</title>
<polygon fill="none" stroke="black" points="107.214,-230 51.9986,-230 51.9986,-194 107.214,-194 107.214,-230"/>
<text text-anchor="middle" x="79.6064" y="-208.7" font-family="Courier,monospace" font-size="11.00">Review</text>
</g>
<!-- \\Vicimus\\Gicimus\\PlaceDetails -->
<g id="node2" class="node"><title>\\Vicimus\\Gicimus\\PlaceDetails</title>
<polygon fill="none" stroke="black" points="127.32,-176 31.8933,-176 31.8933,-140 127.32,-140 127.32,-176"/>
<text text-anchor="middle" x="79.6064" y="-154.7" font-family="Courier,monospace" font-size="11.00">PlaceDetails</text>
</g>
<!-- \\Vicimus\\Gicimus\\Place -->
<g id="node3" class="node"><title>\\Vicimus\\Gicimus\\Place</title>
<polygon fill="none" stroke="black" points="106.606,-122 52.6064,-122 52.6064,-86 106.606,-86 106.606,-122"/>
<text text-anchor="middle" x="79.6064" y="-100.7" font-family="Courier,monospace" font-size="11.00">Place</text>
</g>
<!-- \\Vicimus\\Gicimus\\GoogleAPI -->
<g id="node4" class="node"><title>\\Vicimus\\Gicimus\\GoogleAPI</title>
<polygon fill="none" stroke="black" points="117.517,-68 41.6957,-68 41.6957,-32 117.517,-32 117.517,-68"/>
<text text-anchor="middle" x="79.6064" y="-46.7" font-family="Courier,monospace" font-size="11.00">GoogleAPI</text>
</g>
</g>
</svg>
